<svg xmlns="http://www.w3.org/2000/svg" viewBox="0 0 4611.46 4611.46"><defs><style>.cls-1{fill:#231f20;}</style></defs><title>uncivil-logo-black</title><g id="Layer_2" data-name="Layer 2"><g id="Layer_1-2" data-name="Layer 1"><g id="Layer_2-2" data-name="Layer 2"><g id="Layer_1-2-2" data-name="Layer 1-2"><path class="cls-1" d="M2305.73,0C1032.31,0,0,1032.31,0,2305.73S1032.31,4611.46,2305.73,4611.46,4611.46,3579.15,4611.46,2305.73C4610.2,1032.83,3578.63,1.26,2305.73,0Zm0,4236.32c-1066.24,0-1930.59-864.35-1930.59-1930.59S1239.49,375.14,2305.73,375.14s1930.59,864.35,1930.59,1930.59C4235.48,3371.62,3371.62,4235.48,2305.73,4236.32Z"/><polygon class="cls-1" points="2509.31 2669.43 2931.72 2147.14 3255.01 2465.09 3518.07 2197.46 3168.86 1853.58 3556.19 1373.98 3264.16 1138.38 2899.7 1589 2625.97 1319.09 2362.92 1586.71 2662.57 1881.79 2217.28 2433.06 2509.31 2669.43"/><path class="cls-1" d="M1624.84,2497.87c328,0,594-265.93,594-594s-265.93-594-594-594-594,265.93-594,594c0,.76,0,1.52,0,2.28C1032.55,2233.17,1297.86,2497.46,1624.84,2497.87Zm0-812c120.43,0,218.06,97.64,218.06,218.08s-97.65,218.06-218.09,218c-119.53,0-216.79-96.24-218-215.78-1.26-120.43,95.34-219.08,215.77-220.34Z"/><path class="cls-1" d="M3566.87,2367.49c-3.81,102.94-64,1020.2-1284,979.78-1215.39-28.21-1239.79-934.79-1238.27-1038.49H857l187.57,4.58-375.14-9.15c0,14.48-13.72,1383.89,1601.21,1421.25h63.28c793,0,1188.7-354.55,1380.85-655.73A1468.57,1468.57,0,0,0,3939,2378.93Z"/></g></g></g></g></svg>